<svg width="369" height="331" viewBox="0 0 369 331" fill="none" xmlns="http://www.w3.org/2000/svg">
<rect x="99.1953" y="82.4893" width="109.637" height="107.549" rx="51" fill="#E27A39"/>
<rect x="318.47" y="102.328" width="50.1199" height="49.0757" rx="24.5379" fill="#E27A39"/>
<rect y="169.155" width="50.1199" height="49.0757" rx="24.5379" fill="#E27A39"/>
<rect x="86.6655" y="274.615" width="50.1199" height="49.0757" rx="24.5379" fill="#E27A39"/>
<rect x="211.965" y="281.924" width="50.1199" height="49.0757" rx="24.5379" fill="#E27A39"/>
<rect x="163.934" y="0.000244141" width="50.1199" height="49.0757" rx="24.5379" fill="#E27A39"/>
<rect x="174.714" y="186.409" width="6.26498" height="111.083" transform="rotate(-26 174.714 186.409)" fill="#E27A39"/>
<rect x="178.952" y="45.7893" width="6.26498" height="41.2625" transform="rotate(17 178.952 45.7893)" fill="#E27A39"/>
<rect x="207.845" y="137.729" width="6.26498" height="111.083" transform="rotate(-93 207.845 137.729)" fill="#E27A39"/>
<rect x="103.295" y="155.784" width="6.26498" height="61.9777" transform="rotate(66 103.295 155.784)" fill="#E27A39"/>
<rect x="136.665" y="187.085" width="6.26498" height="91.6352" transform="rotate(14 136.665 187.085)" fill="#E27A39"/>
</svg>
